<svg width="50" height="40" viewBox="0 0 50 40" fill="none" xmlns="http://www.w3.org/2000/svg">
<path d="M42.5 15H41.25L32.7516 4.37656C32.283 3.79108 31.6888 3.31844 31.0129 2.99362C30.337 2.66879 29.5968 2.50009 28.8469 2.5H12.1352C10.0906 2.5 8.25234 3.74453 7.49297 5.64297L3.75 15.1766C1.59688 15.7344 0 17.6727 0 20V28.75C0 29.4406 0.559375 30 1.25 30H5C5 34.1422 8.35781 37.5 12.5 37.5C16.6422 37.5 20 34.1422 20 30H30C30 34.1422 33.3578 37.5 37.5 37.5C41.6422 37.5 45 34.1422 45 30H48.75C49.4406 30 50 29.4406 50 28.75V22.5C50 18.3578 46.6422 15 42.5 15ZM12.5 33.75C10.432 33.75 8.75 32.068 8.75 30C8.75 27.932 10.432 26.25 12.5 26.25C14.568 26.25 16.25 27.932 16.25 30C16.25 32.068 14.568 33.75 12.5 33.75ZM18.125 15H9.13516L12.1352 7.5H18.125V15ZM21.875 15V7.5H28.8469L34.8469 15H21.875ZM37.5 33.75C35.432 33.75 33.75 32.068 33.75 30C33.75 27.932 35.432 26.25 37.5 26.25C39.568 26.25 41.25 27.932 41.25 30C41.25 32.068 39.568 33.75 37.5 33.75Z" fill="white"/>
</svg>
