<svg width="24" height="25" viewBox="0 0 24 25" fill="none" xmlns="http://www.w3.org/2000/svg">
<g clip-path="url(#clip0_508_14)">
<path d="M9.00305 8.59375C9.00305 9.21535 8.766 9.81149 8.34404 10.251C7.92209 10.6906 7.34979 10.9375 6.75305 10.9375C6.15631 10.9375 5.58402 10.6906 5.16206 10.251C4.7401 9.81149 4.50305 9.21535 4.50305 8.59375C4.50305 7.97215 4.7401 7.37601 5.16206 6.93647C5.58402 6.49693 6.15631 6.25 6.75305 6.25C7.34979 6.25 7.92209 6.49693 8.34404 6.93647C8.766 7.37601 9.00305 7.97215 9.00305 8.59375V8.59375Z" fill="white"/>
<path d="M2.25 3.125C1.65326 3.125 1.08097 3.37193 0.65901 3.81147C0.237053 4.25101 0 4.84715 0 5.46875L0 19.5312C0 20.1529 0.237053 20.749 0.65901 21.1885C1.08097 21.6281 1.65326 21.875 2.25 21.875H21.75C22.3467 21.875 22.919 21.6281 23.341 21.1885C23.7629 20.749 24 20.1529 24 19.5312V5.46875C24 4.84715 23.7629 4.25101 23.341 3.81147C22.919 3.37193 22.3467 3.125 21.75 3.125H2.25ZM21.75 4.6875C21.9489 4.6875 22.1397 4.76981 22.2803 4.91632C22.421 5.06284 22.5 5.26155 22.5 5.46875V14.8438L16.8375 11.8016C16.6968 11.7282 16.5376 11.7027 16.3822 11.7288C16.2269 11.7549 16.0834 11.8312 15.972 11.9469L10.407 17.7437L6.417 14.975C6.27294 14.8751 6.10014 14.8302 5.92791 14.8478C5.75567 14.8655 5.5946 14.9446 5.472 15.0719L1.503 18.75V19.5937C1.50121 19.573 1.50021 19.5521 1.5 19.5312V5.46875C1.5 5.26155 1.57902 5.06284 1.71967 4.91632C1.86032 4.76981 2.05109 4.6875 2.25 4.6875H21.75Z" fill="white"/>
</g>
<defs>
<clipPath id="clip0_508_14">
<rect width="24" height="25" fill="white"/>
</clipPath>
</defs>
</svg>
