<svg width="17" height="16" viewBox="0 0 17 16" fill="none" xmlns="http://www.w3.org/2000/svg">
<path d="M5.66675 2.66666V10.6667C5.66675 11.0203 5.816 11.3594 6.08168 11.6095C6.34736 11.8595 6.70769 12 7.08341 12H12.7501C13.1258 12 13.4861 11.8595 13.7518 11.6095C14.0175 11.3594 14.1667 11.0203 14.1667 10.6667V4.828C14.1667 4.65037 14.129 4.47454 14.0558 4.31082C13.9825 4.14711 13.8753 3.99882 13.7403 3.87466L11.3922 1.71333C11.1275 1.46977 10.7721 1.33337 10.402 1.33333H7.08341C6.70769 1.33333 6.34736 1.4738 6.08168 1.72385C5.816 1.9739 5.66675 2.31304 5.66675 2.66666V2.66666Z" stroke="#EEE8E8" stroke-width="2" stroke-linecap="round" stroke-linejoin="round"/>
<path d="M11.3334 12V13.3333C11.3334 13.6869 11.1841 14.0261 10.9184 14.2761C10.6528 14.5262 10.2924 14.6667 9.91671 14.6667H4.25004C3.87432 14.6667 3.51398 14.5262 3.24831 14.2761C2.98263 14.0261 2.83337 13.6869 2.83337 13.3333V5.99999C2.83337 5.64637 2.98263 5.30723 3.24831 5.05718C3.51398 4.80713 3.87432 4.66666 4.25004 4.66666H5.66671" stroke="#EEE8E8" stroke-width="2" stroke-linecap="round" stroke-linejoin="round"/>
</svg>
