<svg width="41" height="39" viewBox="0 0 41 39" fill="none" xmlns="http://www.w3.org/2000/svg">
<path d="M37.2511 16.3174H35.8751V16.25H20.5001V22.75H30.1547C28.7462 26.5338 24.9614 29.25 20.5001 29.25C14.8395 29.25 10.2501 24.8844 10.2501 19.5C10.2501 14.1156 14.8395 9.75 20.5001 9.75C23.113 9.75 25.4901 10.6876 27.3001 12.2192L32.1321 7.62287C29.081 4.91806 24.9998 3.25 20.5001 3.25C11.0658 3.25 3.41675 10.5259 3.41675 19.5C3.41675 28.4741 11.0658 35.75 20.5001 35.75C29.9344 35.75 37.5834 28.4741 37.5834 19.5C37.5834 18.4104 37.4655 17.3469 37.2511 16.3174Z" fill="#FFC107"/>
<path d="M5.38647 11.9364L10.9992 15.8519C12.5179 12.2753 16.196 9.75 20.5001 9.75C23.113 9.75 25.4901 10.6876 27.3001 12.2192L32.1321 7.62287C29.0811 4.91806 24.9998 3.25 20.5001 3.25C13.9384 3.25 8.24793 6.77381 5.38647 11.9364Z" fill="#FF3D00"/>
<path d="M20.4999 35.75C24.9126 35.75 28.922 34.1437 31.9535 31.5315L26.6662 27.2756C24.8934 28.5581 22.7271 29.2517 20.4999 29.25C16.0566 29.25 12.2837 26.5549 10.8624 22.7939L5.2915 26.8767C8.11879 32.1393 13.8605 35.75 20.4999 35.75Z" fill="#4CAF50"/>
<path d="M37.2511 16.3174H35.875V16.25H20.5V22.75H30.1546C29.4809 24.5508 28.2672 26.1245 26.6637 27.2764L26.6662 27.2748L31.9535 31.5307C31.5794 31.8541 37.5833 27.625 37.5833 19.5C37.5833 18.4104 37.4655 17.3469 37.2511 16.3174Z" fill="#1976D2"/>
</svg>
